<?xml version="1.0" standalone="no"?>
<!DOCTYPE svg PUBLIC "-//W3C//DTD SVG 20010904//EN"
 "http://www.w3.org/TR/2001/REC-SVG-20010904/DTD/svg10.dtd">
<svg version="1.0" xmlns="http://www.w3.org/2000/svg"
 width="300.000000pt" height="80.000000pt" viewBox="0 0 300.000000 80.000000"
 preserveAspectRatio="xMidYMid meet">
<metadata>
Created by potrace 1.10, written by Peter Selinger 2001-2011
</metadata>
<g transform="translate(0.000000,80.000000) scale(0.100000,-0.100000)"
fill="#000000" stroke="none">
<path d="M10 423 c0 -204 -3 -379 -6 -388 -6 -15 7 -17 152 -13 131 3 165 6
194 22 77 40 118 103 127 191 5 43 1 63 -20 108 -14 32 -37 63 -54 73 -15 10
-30 19 -32 21 -3 2 7 16 21 31 63 66 56 182 -16 260 -43 48 -73 56 -224 62
l-142 5 0 -372z m300 314 c64 -32 90 -75 90 -152 0 -53 -4 -67 -31 -103 l-31
-42 46 -45 c54 -55 60 -71 58 -155 -2 -52 -8 -73 -30 -105 -46 -67 -84 -79
-250 -83 l-144 -4 6 139 c3 76 6 238 6 361 l0 223 118 -6 c93 -4 126 -10 162
-28z"/>
<path d="M82 728 c-15 -15 -17 -251 -2 -279 9 -16 22 -19 86 -19 83 0 126 15
165 56 19 21 24 38 27 97 3 64 1 75 -21 99 -13 16 -40 35 -60 43 -44 18 -178
20 -195 3z m198 -36 c45 -22 62 -55 57 -115 -7 -83 -60 -117 -182 -117 l-60 0
0 125 0 125 75 0 c51 0 86 -6 110 -18z"/>
<path d="M88 403 c-15 -17 -18 -40 -18 -161 0 -110 3 -144 15 -155 21 -21 162
-22 213 -2 104 42 144 184 75 266 -39 45 -75 59 -176 66 -83 5 -94 4 -109 -14z
m186 -23 c87 -20 131 -119 89 -200 -28 -54 -64 -68 -171 -71 l-92 -2 -3 142
-2 141 70 0 c39 0 88 -5 109 -10z"/>
<path d="M660 400 l0 -380 43 0 42 0 0 380 0 380 -42 0 -43 0 0 -380z m50 0
c0 -227 -4 -350 -10 -350 -6 0 -10 123 -10 350 0 227 4 350 10 350 6 0 10
-123 10 -350z"/>
<path d="M800 400 l0 -380 45 0 45 0 0 380 0 380 -45 0 -45 0 0 -380z m50 0
c0 -227 -4 -350 -10 -350 -6 0 -10 123 -10 350 0 227 4 350 10 350 6 0 10
-123 10 -350z"/>
<path d="M960 400 l0 -380 40 0 c34 0 40 3 40 21 0 20 0 20 38 -3 30 -19 51
-23 113 -23 66 0 81 4 124 30 33 20 55 44 69 72 24 49 32 52 40 19 8 -34 88
-103 132 -115 76 -21 150 -10 210 31 36 25 84 93 84 120 0 10 5 18 10 18 6 0
10 -9 10 -20 0 -48 68 -128 129 -152 47 -18 157 -12 197 11 42 25 44 25 44 6
0 -11 11 -15 40 -15 l40 0 0 225 0 225 -40 0 c-38 0 -40 -2 -40 -31 l0 -30
-26 20 c-14 11 -50 25 -80 32 -47 11 -62 10 -111 -5 -65 -21 -140 -89 -149
-136 -7 -32 -24 -42 -24 -13 0 9 -11 36 -25 60 -70 119 -249 139 -354 40 -18
-18 -39 -45 -46 -62 -12 -27 -14 -28 -21 -10 -15 40 -55 82 -103 108 -65 36
-148 37 -214 3 l-47 -23 0 178 0 179 -40 0 -40 0 0 -380z m49 130 c1 -58 5
-110 9 -117 12 -19 35 -18 65 1 16 11 53 20 91 23 83 7 144 -21 194 -89 18
-27 37 -48 42 -48 4 0 25 21 46 48 47 57 64 71 87 72 9 0 17 6 18 13 0 9 2 9
6 -1 4 -9 8 -10 18 -2 18 15 116 15 125 0 4 -6 11 -12 16 -12 20 -2 74 -54 86
-83 7 -16 20 -39 30 -49 17 -19 18 -19 38 -1 11 10 20 23 20 29 0 20 59 83 92
99 63 29 111 30 177 2 33 -14 63 -25 65 -25 3 0 14 10 26 22 11 12 22 20 24
17 5 -5 11 -216 8 -306 -2 -75 -10 -87 -41 -59 -18 16 -11 18 -119 -33 -29
-13 -50 -17 -60 -12 -10 5 -36 17 -60 27 -46 19 -105 77 -117 115 -4 13 -14
30 -22 38 -13 13 -17 12 -34 -10 -10 -13 -25 -38 -33 -54 -41 -84 -180 -121
-271 -72 -21 12 -53 41 -70 64 -40 56 -55 60 -82 26 -87 -111 -174 -139 -280
-91 -61 27 -65 28 -86 4 -9 -10 -20 -17 -22 -14 -6 6 -7 157 -4 488 2 220 15
212 18 -10z"/>
<path d="M1158 409 c-117 -31 -174 -166 -109 -258 12 -17 19 -31 14 -31 -4 0
15 -12 42 -25 60 -30 113 -32 163 -6 101 52 130 158 67 252 -35 53 -116 84
-177 68z m102 -31 c56 -29 81 -64 87 -121 10 -83 -51 -157 -137 -165 -90 -8
-159 48 -168 138 -7 74 30 129 105 156 52 18 62 17 113 -8z"/>
<path d="M1595 409 c-22 -4 -43 -5 -46 -3 -7 4 -89 -74 -87 -84 1 -4 -2 -26
-6 -48 -8 -47 6 -115 30 -139 8 -8 13 -15 9 -15 -13 0 51 -47 65 -48 8 0 41
-2 73 -4 31 -2 57 0 57 5 0 4 4 5 10 2 14 -9 90 72 90 95 0 11 3 20 8 20 4 0
7 23 7 50 0 28 -3 50 -7 50 -5 0 -8 8 -8 18 0 10 -13 31 -29 47 -34 35 -61 58
-61 51 0 -2 -15 -1 -32 3 -18 4 -51 4 -73 0z m113 -39 c67 -41 91 -127 54
-200 -56 -112 -230 -106 -276 11 -20 50 -20 69 0 119 33 83 144 117 222 70z"/>
<path d="M2025 393 c-114 -60 -140 -191 -57 -285 49 -54 183 -64 234 -17 64
60 87 153 54 217 -44 85 -155 125 -231 85z m163 -40 c89 -67 77 -210 -22 -257
-110 -52 -233 29 -223 147 5 60 30 95 88 125 54 28 107 23 157 -15z"/>
<path d="M2910 594 l0 -185 -29 20 c-50 36 -118 46 -182 28 -106 -32 -169
-113 -169 -220 0 -96 42 -167 125 -209 71 -37 216 -21 247 26 5 6 8 2 8 -11 0
-20 5 -23 45 -23 33 0 45 4 45 15 0 10 -10 15 -27 15 -14 0 -35 7 -45 16 -19
18 -12 20 -142 -43 -19 -9 -32 -10 -41 -3 -6 5 -15 7 -18 3 -4 -3 -7 -1 -7 5
0 7 -11 12 -24 12 -29 0 -109 69 -126 109 -7 18 -11 58 -8 99 3 58 8 74 35
108 29 37 49 51 98 70 31 11 64 11 58 -1 -3 -5 0 -5 7 2 8 8 20 9 36 3 13 -5
24 -7 24 -4 0 4 6 1 13 -5 8 -6 17 -8 20 -4 4 3 7 2 7 -4 0 -16 50 -26 66 -12
11 9 14 48 14 180 l0 169 30 0 c20 0 30 5 30 15 0 11 -12 15 -45 15 l-45 0 0
-186z"/>
<path d="M514 611 c-2 -2 -4 -26 -4 -53 l0 -48 50 0 50 0 0 53 0 52 -46 0
c-25 0 -48 -2 -50 -4z m66 -51 c0 -22 -25 -18 -34 6 -3 9 1 14 14 14 13 0 20
-7 20 -20z"/>
<path d="M513 245 l2 -225 48 0 47 0 0 225 0 225 -49 0 -50 0 2 -225z m67 -5
c0 -162 -2 -190 -15 -190 -11 0 -15 13 -16 53 0 53 0 264 1 305 0 13 6 22 15
22 13 0 15 -28 15 -190z"/>
<path d="M2360 245 l0 -225 43 0 42 0 -3 126 c-2 82 1 137 9 156 14 35 64 78
90 78 16 0 19 7 19 45 0 25 -4 45 -9 45 -21 0 -67 -22 -90 -43 l-24 -22 6 33
7 32 -45 0 -45 0 0 -225z m65 165 c8 -26 25 -25 71 2 46 27 41 7 -6 -24 -19
-13 -45 -43 -57 -68 -20 -38 -23 -60 -23 -157 0 -69 -4 -113 -10 -113 -6 0
-10 70 -10 190 0 158 2 190 14 190 8 0 18 -9 21 -20z"/>
<path d="M2750 408 c-19 -5 -42 -10 -50 -12 -28 -4 -56 -24 -69 -50 -8 -14
-17 -23 -21 -21 -4 2 -7 -1 -7 -8 -1 -7 -5 -38 -10 -69 -6 -32 -6 -55 -1 -52
7 5 12 -21 6 -29 -2 -2 12 -22 30 -45 31 -38 81 -64 129 -65 7 0 10 -4 7 -9
-3 -4 4 -8 16 -8 14 0 19 4 14 12 -5 8 -2 9 12 4 10 -4 15 -4 11 0 -6 7 48 37
56 31 2 -1 10 5 18 13 63 68 65 190 4 254 -18 20 -41 36 -49 36 -9 0 -16 5
-16 11 0 5 -5 7 -10 4 -6 -4 -16 -3 -23 3 -7 5 -26 5 -47 0z m100 -47 c14 -10
36 -33 48 -52 20 -28 23 -43 20 -87 -5 -61 -29 -99 -79 -124 -97 -50 -215 15
-226 123 -11 122 140 211 237 140z"/>
</g>
</svg>
